<svg width="223" height="67" viewBox="0 0 223 67" fill="none" xmlns="http://www.w3.org/2000/svg">
<path d="M21.9704 26.4824C21.9738 27.708 20.9378 28.7525 19.719 28.7559C18.5188 28.7593 17.4337 27.686 17.4303 26.4926C17.4269 25.2974 18.4951 24.2344 19.7105 24.2242C20.9226 24.214 21.9687 25.2585 21.9704 26.4824Z" fill="#FFB0AF"/>
<path d="M17.4337 37.3403C17.4252 36.1028 18.4392 35.06 19.6581 35.0549C20.8617 35.0499 21.9535 36.1096 21.9705 37.2996C21.9857 38.4744 20.8955 39.5731 19.7004 39.5883C18.4816 39.6019 17.4439 38.5743 17.4354 37.3403H17.4337Z" fill="#FFB0AF"/>
<path d="M17.5183 15.6772C17.5133 14.3247 18.4358 13.3665 19.719 13.3936C20.9649 13.419 21.8926 14.4009 21.8824 15.6857C21.8723 16.9536 20.8989 17.9372 19.6631 17.927C18.4189 17.9168 17.5217 16.9773 17.5183 15.6772Z" fill="#FFB0AF"/>
<path d="M31.5619 26.4824C31.5653 27.708 30.5293 28.7525 29.3105 28.7559C28.1103 28.7593 27.0252 27.686 27.0218 26.4926C27.0184 25.2974 28.0866 24.2344 29.302 24.2242C30.5141 24.214 31.5602 25.2585 31.5619 26.4824Z" fill="#FFB0AF"/>
<path d="M27.0252 37.3403C27.0167 36.1028 28.0307 35.06 29.2495 35.0549C30.4531 35.0499 31.545 36.1096 31.5619 37.2996C31.5771 38.4744 30.487 39.5731 29.2918 39.5883C28.073 39.6019 27.0353 38.5743 27.0268 37.3403H27.0252Z" fill="#FFB0AF"/>
<path d="M27.1098 15.6772C27.1047 14.3247 28.0273 13.3665 29.3104 13.3936C30.5564 13.419 31.484 14.4009 31.4739 15.6857C31.4637 16.9536 30.4903 17.9372 29.2546 17.927C28.0104 17.9168 27.1132 16.9773 27.1098 15.6772Z" fill="#FFB0AF"/>
<path d="M79.6128 10.1299H48.2414C42.9143 10.1299 38.5958 14.4484 38.5958 19.7756V34.1882C38.5958 39.5154 42.9143 43.8339 48.2414 43.8339H79.6128C84.9399 43.8339 89.2585 39.5154 89.2585 34.1882V19.7756C89.2585 14.4484 84.9399 10.1299 79.6128 10.1299Z" fill="#FFB0AF"/>
<path d="M63.866 43.8253C58.7706 43.8253 53.6735 43.8304 48.5781 43.8253C42.704 43.8168 38.621 39.7574 38.6057 33.9037C38.5939 29.3178 38.5905 24.732 38.6057 20.1444C38.626 14.1857 42.6516 10.1771 48.6137 10.172C55.6829 10.1653 62.7538 10.1686 69.823 10.172C71.2619 10.172 71.9813 10.7154 72.0135 11.7887C72.0423 12.8077 71.4718 13.4679 70.4477 13.5695C70.1277 13.6017 69.8027 13.5848 69.4794 13.5848C62.5896 13.5848 55.6981 13.5831 48.8083 13.5848C44.4967 13.5848 42.0608 16.0072 42.0591 20.2883C42.0591 24.8386 42.0557 29.3889 42.0591 33.9392C42.0625 37.8615 44.5848 40.3821 48.5121 40.3838C58.7757 40.3872 69.0392 40.3872 79.3028 40.3838C83.2301 40.3838 85.7609 37.8581 85.7643 33.9443C85.7694 29.2856 85.7761 24.6287 85.7626 19.9701C85.7524 16.1172 83.2234 13.6169 79.3434 13.5864C78.8779 13.5831 78.4073 13.6118 77.9452 13.5594C77.0006 13.4544 76.5079 12.9042 76.4859 11.9495C76.4639 10.944 76.9481 10.3091 77.9147 10.2076C84.9974 9.46274 89.1296 14.4075 89.1939 19.4978C89.2566 24.4763 89.2921 29.46 89.1973 34.4369C89.0957 39.8031 84.9619 43.7863 79.5821 43.8202C74.3428 43.854 69.1036 43.827 63.8643 43.827L63.866 43.8253Z" fill="#FFB0AF"/>
<path d="M64.0725 29.3111C62.3933 29.3111 61.0762 28.7322 59.9945 27.6471C59.27 26.9192 59.2598 25.8138 59.92 25.1434C60.5735 24.4798 61.5367 24.4748 62.3374 25.1316C63.5833 26.1507 64.2215 26.1439 65.5233 25.0994C66.3087 24.4697 67.3075 24.5019 67.9406 25.1773C68.5551 25.8341 68.5263 26.8633 67.8577 27.5929C66.8064 28.7373 65.4793 29.2705 64.0725 29.3128V29.3111Z" fill="white"/>
<path d="M51.6845 25.4125C51.6845 23.6452 52.1991 22.8293 53.335 22.792C54.5234 22.7531 55.1158 23.6266 55.1125 25.4176C55.1125 25.7037 55.1294 25.9898 55.1023 26.2725C54.9973 27.3559 54.2847 28.0025 53.274 27.95C52.3125 27.8993 51.7353 27.2509 51.6862 26.1624C51.676 25.9136 51.6862 25.663 51.6845 25.4125Z" fill="white"/>
<path d="M76.1152 25.4211C76.1406 27.3086 75.4754 28.1314 74.1143 27.9282C73.0005 27.7623 72.5806 26.7822 72.7144 24.6611C72.7838 23.5506 73.4355 22.8261 74.3919 22.7922C75.2214 22.7634 75.995 23.3982 76.1051 24.2463C76.1559 24.6323 76.1135 25.0301 76.1135 25.4211H76.1152Z" fill="white"/>
<path d="M115.565 50.8878H109.149V50.8997C85.8286 50.9183 62.51 50.9132 39.1897 50.9132C38.8935 50.9132 38.5973 50.9031 38.3027 50.9234C35.3487 50.9166 32.3931 50.8912 29.4408 50.9894C26.0213 51.1045 23.323 52.5316 21.8654 55.7801C21.3593 56.9075 20.9902 58.0959 20.5366 59.3164C19.8019 58.1873 19.1857 57.0209 18.7286 55.7784C17.5589 52.6027 15.3328 50.9979 11.9083 50.8929C7.35628 50.7524 3.93171 47.3244 3.99773 42.6421C4.12469 33.77 4.13315 24.8946 4.00281 16.0225C3.90462 9.30881 9.28609 4.64171 15.4259 4.5977C23.9578 4.53506 32.4913 4.52998 41.0248 4.5266C62.1291 4.51813 83.2318 4.52321 104.336 4.5266C104.949 4.5266 113.545 4.5266 114.156 4.5266H115.292C116.55 4.5266 117.569 3.5126 117.569 2.2633C117.569 1.014 116.55 0 115.292 0H107.971C94.7548 0.0220066 60.2941 0.0338564 15.3227 0.037242C15.6477 0.037242 14.2681 0.037242 13.7958 0.037242C12.6768 0.0389348 5.35029 1.84517 1.83938 8.59444C1.46866 9.30543 -0.124286 10.8103 0.00775421 16.3526C0.217664 25.1824 0.0551531 34.0206 0.0500747 42.8554C0.0500747 43.8762 0.11948 44.8885 0.353089 45.8805C1.55838 50.9725 5.94786 54.5325 11.6137 54.8423C13.4335 54.9421 14.4543 55.6684 15.0823 57.3544C16.2097 60.3845 17.9652 63.0592 20.1929 65.4088C21.2205 66.4922 22.6746 66.5007 23.4482 65.4342C23.8545 64.8722 23.8765 64.1849 23.9544 63.5298C24.1761 61.6626 24.5469 59.831 25.1884 58.062C25.9434 55.9832 27.4314 54.9591 29.6507 54.954C32.5996 54.9472 35.5485 54.9286 38.4974 54.8964C38.753 54.9049 39.0103 54.893 39.2659 54.893C52.111 54.893 64.9545 54.893 77.7996 54.8947C88.2493 54.8947 98.6991 54.8947 109.149 54.8947V54.8981H115.565C116.672 54.8981 117.569 54.0009 117.569 52.8938C117.569 51.7867 116.672 50.8895 115.565 50.8895V50.8878Z" fill="#FFB0AF"/>
<path d="M132.466 38.7656C132.466 39.0907 132.341 39.3784 132.092 39.6273C131.867 39.8524 131.567 39.9642 131.193 39.9642C130.868 39.9642 130.594 39.8524 130.368 39.6273C130.143 39.4021 130.032 39.1279 130.032 38.8029V36.6665C129.182 37.667 128.132 38.466 126.883 39.0653C125.634 39.6645 124.31 39.9642 122.91 39.9642C121.635 39.9642 120.423 39.7153 119.275 39.2142C118.175 38.7403 117.19 38.0648 116.315 37.1913C115.465 36.3415 114.791 35.3428 114.292 34.1933C113.818 33.0947 113.579 31.8691 113.579 30.5199C113.579 29.1707 113.828 27.9959 114.329 26.8465C114.828 25.6971 115.504 24.6983 116.352 23.8485C117.202 22.9987 118.2 22.325 119.35 21.8256C120.499 21.3262 121.723 21.0757 123.023 21.0757C124.323 21.0757 125.596 21.3127 126.697 21.7884C127.846 22.2877 128.845 22.9632 129.695 23.8113C130.568 24.6865 131.244 25.6734 131.719 26.772C132.219 27.9214 132.469 29.1335 132.469 30.4065V38.764L132.466 38.7656ZM122.91 37.8295C123.409 37.8295 123.89 37.7737 124.352 37.6602C124.814 37.5485 125.258 37.3928 125.683 37.1913C126.532 36.8172 127.281 36.3043 127.931 35.6542C128.581 35.0042 129.092 34.256 129.468 33.4062C129.842 32.5564 130.03 31.6321 130.03 30.6333C130.03 29.6346 129.844 28.7357 129.469 27.8605C129.095 26.987 128.598 26.2371 127.975 25.6124C127.326 24.9624 126.58 24.4512 125.732 24.0754C124.86 23.7012 123.937 23.5133 122.966 23.5133C121.994 23.5133 121.046 23.7012 120.2 24.0754C119.328 24.4495 118.58 24.9505 117.957 25.5752C117.334 26.1998 116.834 26.9498 116.46 27.8233C116.086 28.6984 115.9 29.6227 115.9 30.5961C115.9 31.5695 116.086 32.5208 116.458 33.3689C116.831 34.2187 117.34 34.9687 117.987 35.617C118.608 36.2417 119.353 36.741 120.223 37.1168C120.645 37.3166 121.087 37.4859 121.545 37.623C122.006 37.7601 122.483 37.8295 122.981 37.8295H122.906H122.91Z" fill="#FFB0AF"/>
<path d="M136.512 39.441C136.286 39.2159 136.175 38.9416 136.175 38.6166C136.175 38.2916 136.286 38.0174 136.512 37.7922C136.737 37.5671 137.011 37.4553 137.336 37.4553H145.956C146.78 37.4553 147.493 37.1557 148.092 36.5565C148.691 35.9572 148.991 35.2445 148.991 34.4201C148.991 33.5957 148.691 32.883 148.092 32.2838C147.493 31.6845 146.78 31.3849 145.956 31.3849H141.458C140.784 31.3849 140.109 31.2478 139.435 30.9718C138.785 30.723 138.223 30.3472 137.749 29.8478C137.25 29.3738 136.874 28.8118 136.625 28.1618C136.349 27.488 136.214 26.8126 136.214 26.1389C136.214 25.4651 136.351 24.7897 136.625 24.1142C136.874 23.4896 137.25 22.9276 137.749 22.4282C138.223 21.9542 138.785 21.5784 139.435 21.3042C140.109 21.0299 140.784 20.8911 141.458 20.8911H147.828C148.153 20.8911 148.427 21.0028 148.653 21.228C148.878 21.4531 148.989 21.7274 148.989 22.0524C148.989 22.3774 148.878 22.6516 148.653 22.8768C148.427 23.1019 148.153 23.2137 147.828 23.2137H141.458C140.634 23.2137 139.921 23.5133 139.322 24.1125C138.722 24.7118 138.423 25.4245 138.423 26.2489C138.423 27.0733 138.722 27.786 139.322 28.3852C139.921 28.9845 140.634 29.2841 141.458 29.2841H145.956C146.63 29.2841 147.305 29.4212 147.979 29.6972C148.603 29.9731 149.165 30.3472 149.665 30.8212C150.139 31.3206 150.515 31.8843 150.789 32.5072C151.063 33.181 151.2 33.8564 151.2 34.5302C151.2 35.2039 151.063 35.8793 150.789 36.5531C150.513 37.2031 150.139 37.7651 149.665 38.2391C149.165 38.7385 148.602 39.1143 147.979 39.3632C147.305 39.6391 146.63 39.7762 145.956 39.7762H137.336C137.011 39.7762 136.737 39.6645 136.512 39.4393V39.441Z" fill="#FFB0AF"/>
<path d="M156.336 31.5338C156.411 31.9587 156.524 32.4023 156.673 32.8644C156.824 33.3265 156.998 33.7447 157.198 34.1205C157.597 34.8704 158.122 35.5069 158.772 36.0317C159.397 36.5564 160.108 36.9678 160.908 37.2691C161.682 37.5687 162.532 37.7194 163.456 37.7194C164.431 37.7194 165.354 37.5315 166.229 37.1574C167.079 36.7833 167.827 36.2703 168.477 35.6203C168.726 35.4206 168.988 35.3207 169.264 35.3207C169.54 35.3207 169.801 35.4206 170.051 35.6203C170.251 35.8708 170.351 36.1332 170.351 36.4075C170.351 36.6817 170.251 36.9441 170.051 37.1946C169.202 38.0444 168.203 38.7182 167.053 39.2175C165.953 39.6932 164.743 39.9302 163.419 39.9302C162.095 39.9302 160.932 39.6814 159.784 39.1803C158.684 38.7063 157.699 38.0309 156.824 37.1574C155.974 36.3076 155.3 35.3088 154.801 34.1594C154.325 33.0608 154.088 31.8352 154.088 30.486C154.088 29.1368 154.337 27.962 154.838 26.8126C155.337 25.6631 156.013 24.6644 156.861 23.8146C157.711 22.9648 158.71 22.291 159.859 21.7917C161.008 21.2923 162.232 21.0417 163.532 21.0417C164.832 21.0417 166.105 21.2787 167.206 21.7544C168.355 22.2538 169.354 22.9292 170.204 23.7773C171.077 24.6525 171.753 25.6394 172.227 26.7381C172.726 27.8875 172.977 29.0996 172.977 30.3726C172.977 30.6976 172.865 30.9718 172.64 31.197C172.415 31.4221 172.14 31.5338 171.815 31.5338H156.338H156.336ZM170.427 29.472C170.277 28.5985 170.002 27.7978 169.603 27.0733C169.178 26.3233 168.653 25.6868 168.028 25.1621C167.378 24.6373 166.666 24.2259 165.892 23.9246C165.091 23.625 164.255 23.4743 163.382 23.4743C162.508 23.4743 161.645 23.625 160.871 23.9246C160.071 24.2242 159.36 24.6373 158.735 25.1621C158.085 25.6868 157.56 26.3233 157.161 27.0733C156.761 27.7978 156.487 28.5968 156.336 29.472H170.427Z" fill="#FFB0AF"/>
<path d="M189.427 36.5176C189.202 36.9425 188.865 37.1541 188.415 37.1541C187.939 37.1541 187.603 36.9425 187.403 36.5176L179.421 19.6537V38.6539C179.421 38.9789 179.309 39.2532 179.084 39.4783C178.859 39.7035 178.585 39.8152 178.26 39.8152C177.935 39.8152 177.661 39.7035 177.436 39.4783C177.21 39.2532 177.099 38.9789 177.099 38.6539V14.6311C177.099 14.3315 177.21 14.0691 177.436 13.844C177.661 13.6188 177.923 13.5071 178.223 13.5071C178.673 13.5071 179.01 13.7204 179.235 14.1436L188.342 33.3689L197.45 14.1436C197.649 13.7187 197.986 13.5071 198.462 13.5071C198.787 13.5071 199.061 13.6188 199.286 13.844C199.512 14.0691 199.623 14.3433 199.623 14.6684V38.6539C199.623 38.9789 199.512 39.2532 199.286 39.4783C199.061 39.7035 198.787 39.8152 198.462 39.8152C198.137 39.8152 197.863 39.7035 197.638 39.4783C197.412 39.2532 197.301 38.9789 197.301 38.6539V19.6537L189.431 36.5176H189.427Z" fill="#C8CFA3"/>
<path d="M205.805 31.5338C205.88 31.9587 205.993 32.4023 206.142 32.8644C206.293 33.3265 206.467 33.7447 206.667 34.1205C207.067 34.8704 207.591 35.5069 208.241 36.0317C208.866 36.5564 209.577 36.9678 210.378 37.2691C211.151 37.5687 212.001 37.7194 212.925 37.7194C213.901 37.7194 214.823 37.5315 215.698 37.1574C216.548 36.7833 217.296 36.2703 217.946 35.6203C218.195 35.4206 218.458 35.3207 218.734 35.3207C219.009 35.3207 219.27 35.4206 219.521 35.6203C219.72 35.8708 219.82 36.1332 219.82 36.4075C219.82 36.6817 219.72 36.9441 219.521 37.1946C218.671 38.0444 217.672 38.7182 216.523 39.2175C215.422 39.6932 214.212 39.9302 212.888 39.9302C211.564 39.9302 210.401 39.6814 209.254 39.1803C208.153 38.7063 207.168 38.0309 206.293 37.1574C205.443 36.3076 204.769 35.3088 204.27 34.1594C203.794 33.0608 203.557 31.8352 203.557 30.486C203.557 29.1368 203.806 27.962 204.307 26.8126C204.807 25.6631 205.482 24.6644 206.33 23.8146C207.18 22.9648 208.179 22.291 209.328 21.7917C210.478 21.2923 211.702 21.0417 213.002 21.0417C214.302 21.0417 215.575 21.2787 216.675 21.7544C217.824 22.2538 218.823 22.9292 219.673 23.7773C220.547 24.6525 221.222 25.6394 221.696 26.7381C222.195 27.8875 222.446 29.0996 222.446 30.3726C222.446 30.6976 222.334 30.9718 222.109 31.197C221.884 31.4221 221.61 31.5338 221.285 31.5338H205.807H205.805ZM219.896 29.472C219.746 28.5985 219.472 27.7978 219.072 27.0733C218.647 26.3233 218.122 25.6868 217.498 25.1621C216.848 24.6373 216.135 24.2259 215.361 23.9246C214.561 23.625 213.724 23.4743 212.851 23.4743C211.977 23.4743 211.114 23.625 210.341 23.9246C209.54 24.2242 208.829 24.6373 208.204 25.1621C207.554 25.6868 207.029 26.3233 206.63 27.0733C206.23 27.7978 205.956 28.5968 205.805 29.472H219.896Z" fill="#C8CFA3"/>
<path d="M110.937 16.334H93.5919C93.0468 16.334 92.5999 15.8871 92.5999 15.342V14.3838C92.5999 13.8388 93.0468 13.3918 93.5919 13.3918H111.929V15.3403C111.929 15.8854 111.482 16.3323 110.937 16.3323V16.334Z" fill="#FFB0AF"/>
<path d="M110.937 27.9604H93.5919C93.0468 27.9604 92.5999 27.5135 92.5999 26.9684V26.0103C92.5999 25.4652 93.0468 25.0183 93.5919 25.0183H111.929V26.9667C111.929 27.5118 111.482 27.9587 110.937 27.9587V27.9604Z" fill="#FFB0AF"/>
<path d="M110.937 39.5866H93.5919C93.0468 39.5866 92.5999 39.1397 92.5999 38.5947V37.6365C92.5999 37.0914 93.0468 36.6445 93.5919 36.6445H111.929V38.593C111.929 39.1381 111.482 39.585 110.937 39.585V39.5866Z" fill="#FFB0AF"/>
</svg>
