<svg width="75" height="64" viewBox="0 0 75 64" fill="none" xmlns="http://www.w3.org/2000/svg">
<path d="M16.4741 26.1973C16.4774 27.295 15.5494 28.231 14.4582 28.2326C13.3832 28.2358 12.4116 27.2739 12.4084 26.2054C12.4051 25.1352 13.3622 24.183 14.4501 24.1733C15.5365 24.1636 16.4725 25.0996 16.4741 26.1957V26.1973Z" fill="#FFB0AF"/>
<path d="M12.41 35.9212C12.4019 34.8122 13.3104 33.8794 14.4016 33.8745C15.4799 33.8697 16.458 34.8186 16.4725 35.884C16.4871 36.9364 15.509 37.9209 14.4388 37.9338C13.3476 37.9468 12.4181 37.0253 12.41 35.9212Z" fill="#FFB0AF"/>
<path d="M12.4876 16.5187C12.4827 15.3079 13.3104 14.4495 14.4582 14.4721C15.5753 14.4947 16.4046 15.3742 16.3965 16.5252C16.3884 17.6601 15.5155 18.5427 14.4097 18.533C13.2943 18.5233 12.4924 17.6827 12.4876 16.5187Z" fill="#FFB0AF"/>
<path d="M50.2272 14.0222H32.9311C27.8438 14.0222 23.7197 18.1463 23.7197 23.2336V28.5733C23.7197 33.6606 27.8438 37.7847 32.9311 37.7847H50.2272C55.3145 37.7847 59.4386 33.6606 59.4386 28.5733V23.2336C59.4386 18.1463 55.3145 14.0222 50.2272 14.0222Z" fill="#FFB0AF"/>
<path d="M41.5363 37.7782C37.9442 37.7782 34.3505 37.7814 30.7584 37.7782C26.6166 37.7717 23.7375 34.9103 23.7278 30.7832C23.7197 27.55 23.7181 24.3167 23.7278 21.0835C23.7423 16.8836 26.5811 14.0562 30.7842 14.0529C35.7682 14.0481 40.7538 14.0497 45.7378 14.0529C46.7514 14.0529 47.2607 14.4361 47.2817 15.1926C47.3027 15.912 46.9002 16.376 46.1775 16.4471C45.9512 16.4698 45.7233 16.4584 45.4953 16.4584C40.6374 16.4584 35.7795 16.4584 30.9217 16.4584C27.8808 16.4584 26.164 18.1656 26.164 21.1838C26.164 24.3911 26.1608 27.6001 26.164 30.8074C26.1656 33.5734 27.9455 35.3501 30.7131 35.3501C37.949 35.3517 45.1849 35.3533 52.4225 35.3501C55.1917 35.3501 56.9748 33.5702 56.9781 30.8106C56.9813 27.5273 56.9861 24.2424 56.9781 20.9591C56.97 18.2432 55.1869 16.4795 52.4516 16.4584C52.1234 16.4552 51.7904 16.4762 51.4654 16.439C50.7994 16.3647 50.4518 15.9767 50.4373 15.3042C50.4211 14.5945 50.7622 14.1483 51.4444 14.0772C56.4381 13.5518 59.3512 17.0372 59.3965 20.626C59.4418 24.1373 59.466 27.6486 59.3981 31.1598C59.327 34.9427 56.4122 37.7507 52.6197 37.775C48.9258 37.7992 45.2318 37.7798 41.5379 37.7798L41.5363 37.7782Z" fill="#FFB0AF"/>
<path d="M41.6818 27.5452C40.4968 27.5452 39.5689 27.1378 38.8059 26.3715C38.295 25.859 38.2869 25.0782 38.7541 24.6062C39.2149 24.139 39.8939 24.1357 40.458 24.5981C41.3359 25.3159 41.7869 25.311 42.7051 24.5755C43.2596 24.1309 43.9628 24.1535 44.409 24.6304C44.8423 25.0944 44.8229 25.8186 44.3508 26.3327C43.6104 27.1394 42.6744 27.5161 41.6818 27.5452Z" fill="white"/>
<path d="M32.9473 24.797C32.9473 23.5506 33.3094 22.9751 34.1096 22.9492C34.947 22.9218 35.3641 23.5377 35.3625 24.8003C35.3625 25.0007 35.3738 25.2044 35.3544 25.4032C35.2801 26.1679 34.7773 26.6238 34.066 26.585C33.3886 26.5494 32.9813 26.0919 32.9473 25.324C32.9392 25.1478 32.9473 24.9716 32.9473 24.7954V24.797Z" fill="white"/>
<path d="M50.1722 24.8036C50.19 26.134 49.7212 26.7144 48.7609 26.5705C47.9752 26.4525 47.6794 25.7622 47.7748 24.2669C47.8249 23.4844 48.284 22.972 48.9581 22.9493C49.5434 22.9299 50.0881 23.3761 50.1657 23.9743C50.2013 24.2459 50.1722 24.5271 50.1722 24.8036Z" fill="white"/>
<path d="M74.9612 17.1328C74.9741 17.1182 74.9871 17.1053 75 17.0923C74.8658 16.6914 74.6298 16.3148 74.3 15.9866C69.3209 11.0301 64.3514 6.06388 59.3836 1.09606C58.8081 0.520546 58.155 0.179443 57.392 0.0565811V0C56.5626 0 55.743 0 54.9283 0C54.3511 0 53.7724 0 53.1953 0C31.1723 0.00969962 15.349 0.0145494 14.6603 0.0145494C14.67 0.0145494 14.6797 0.0145494 14.6797 0.0145494C14.6797 0.0145494 13.5804 0.0145494 13.1746 0.0145494C12.1061 0.016166 5.1094 1.74108 1.75657 8.18648C1.40253 8.86707 -0.11869 10.3026 0.00740509 15.5954C0.207864 24.0276 0.05267 32.4679 0.0478202 40.9049C0.0478202 41.8797 0.114101 42.8464 0.337192 43.7938C1.48821 48.6565 5.68006 52.0562 11.0908 52.3521C12.8287 52.4474 13.8035 53.141 14.4033 54.7511C15.4799 57.6448 17.1563 60.1991 19.2838 62.4429C20.2651 63.4775 21.6537 63.4856 22.3925 62.4672C22.7805 61.9304 22.8015 61.2741 22.8759 60.6485C23.0876 58.8654 23.4417 57.1162 24.0544 55.4268C24.7754 53.4417 26.1964 52.4636 28.3157 52.4588C31.1319 52.4523 33.948 52.4345 36.7641 52.4038C37.0082 52.4119 37.2539 52.4006 37.498 52.4006C44.7243 52.4006 51.9521 52.4006 59.1783 52.4006C59.2963 52.4006 59.4143 52.4006 59.5323 52.4006C60.7367 52.3666 62.4067 52.2502 64.3692 51.8784C66.0278 51.5648 67.2516 51.277 68.8084 50.6191C70.91 49.7316 72.1726 48.6597 73.0197 47.4974C74.1561 45.9358 74.5716 44.1721 74.6605 43.7938C74.9951 42.3825 74.9596 41.2638 74.9499 40.9049C74.8852 38.3232 74.9143 29.4658 74.958 17.1328H74.9612ZM59.9753 5.15373C63.4865 8.65853 66.993 12.1601 70.501 15.6633C70.1518 15.7861 69.738 15.8282 69.3273 15.867C65.108 16.2743 61.1651 13.421 60.2016 9.289C59.9446 8.18809 59.9801 7.07587 59.9737 5.96365C59.9737 5.68559 59.9737 5.40915 59.9737 5.15373H59.9753ZM70.6707 43.8293C70.6707 43.8293 70.2181 44.9577 69.3467 45.9552C67.8643 47.651 64.2577 48.8246 59.8152 48.5999C52.3514 48.5999 44.8891 48.5999 37.4253 48.5999C37.1424 48.5999 36.8595 48.5902 36.5782 48.6096C33.7572 48.6032 30.9346 48.5789 28.1153 48.6727C24.8497 48.7826 22.2729 50.1454 20.881 53.2477C20.3976 54.3243 20.0452 55.4592 19.6119 56.6248C18.9103 55.5465 18.3219 54.4326 17.8854 53.2461C16.7683 50.2133 14.6425 48.6808 11.3721 48.5805C7.02508 48.4464 3.75469 45.1727 3.81774 40.7012C3.93898 32.2286 3.94707 23.7527 3.82259 15.2801C3.72882 8.86868 8.868 4.41171 14.7314 4.36968C22.8791 4.30986 31.0284 4.30501 39.1777 4.30178C45.0993 4.30016 51.0225 4.30016 56.9442 4.29855C56.9442 4.91124 56.9474 5.68883 56.9506 6.58604C56.9846 7.35878 57.3111 12.7792 62.0348 16.4635C65.3925 19.0824 69.0557 19.3313 71.1315 19.2085C71.0603 26.3716 71.0797 33.538 71.1816 40.7012C71.201 42.0365 70.9973 43.0243 70.6691 43.8293H70.6707Z" fill="#C8CFA3"/>
</svg>
